<?xml version="1.0" encoding="UTF-8"?>
<?xml-stylesheet href="https://cdnjs.cloudflare.com/ajax/libs/font-awesome/6.6.0/css/all.min.css" type="text/css"?>
<svg aria-roledescription="er" role="graphics-document document" style="overflow: hidden; max-width: 100%;" xmlns="http://www.w3.org/2000/svg" width="100%" id="graph-div" height="100%" xmlns:xlink="http://www.w3.org/1999/xlink" xmlns:ev="http://www.w3.org/2001/xml-events"><defs><marker orient="auto" markerHeight="240" markerWidth="190" refY="7" refX="0" id="MD_PARENT_START"><path d="M 18,7 L9,13 L1,7 L9,1 Z"></path></marker><style id="svg-pan-zoom-controls-styles" type="text/css">.svg-pan-zoom-control { cursor: pointer; fill: black; fill-opacity: 0.333; } .svg-pan-zoom-control:hover { fill-opacity: 0.8; } .svg-pan-zoom-control-background { fill: white; fill-opacity: 0.5; } .svg-pan-zoom-control-background { fill-opacity: 0.8; }</style></defs><defs><marker orient="auto" markerHeight="28" markerWidth="20" refY="7" refX="19" id="MD_PARENT_END"><path d="M 18,7 L9,13 L1,7 L9,1 Z"></path></marker></defs><defs><marker orient="auto" markerHeight="18" markerWidth="18" refY="9" refX="0" id="ONLY_ONE_START"><path d="M9,0 L9,18 M15,0 L15,18" fill="none" stroke="gray"></path></marker></defs><defs><marker orient="auto" markerHeight="18" markerWidth="18" refY="9" refX="18" id="ONLY_ONE_END"><path d="M3,0 L3,18 M9,0 L9,18" fill="none" stroke="gray"></path></marker></defs><defs><marker orient="auto" markerHeight="18" markerWidth="30" refY="9" refX="0" id="ZERO_OR_ONE_START"><circle r="6" cy="9" cx="21" fill="white" stroke="gray"></circle><path d="M9,0 L9,18" fill="none" stroke="gray"></path></marker></defs><defs><marker orient="auto" markerHeight="18" markerWidth="30" refY="9" refX="30" id="ZERO_OR_ONE_END"><circle r="6" cy="9" cx="9" fill="white" stroke="gray"></circle><path d="M21,0 L21,18" fill="none" stroke="gray"></path></marker></defs><defs><marker orient="auto" markerHeight="36" markerWidth="45" refY="18" refX="18" id="ONE_OR_MORE_START"><path d="M0,18 Q 18,0 36,18 Q 18,36 0,18 M42,9 L42,27" fill="none" stroke="gray"></path></marker></defs><defs><marker orient="auto" markerHeight="36" markerWidth="45" refY="18" refX="27" id="ONE_OR_MORE_END"><path d="M3,9 L3,27 M9,18 Q27,0 45,18 Q27,36 9,18" fill="none" stroke="gray"></path></marker></defs><defs><marker orient="auto" markerHeight="36" markerWidth="57" refY="18" refX="18" id="ZERO_OR_MORE_START"><circle r="6" cy="18" cx="48" fill="white" stroke="gray"></circle><path d="M0,18 Q18,0 36,18 Q18,36 0,18" fill="none" stroke="gray"></path></marker></defs><defs><marker orient="auto" markerHeight="36" markerWidth="57" refY="18" refX="39" id="ZERO_OR_MORE_END"><circle r="6" cy="18" cx="9" fill="white" stroke="gray"></circle><path d="M21,18 Q39,0 57,18 Q39,36 21,18" fill="none" stroke="gray"></path></marker></defs><g id="viewport-20241126144319112" class="svg-pan-zoom_viewport" transform="matrix(0.7416020671834626,0,0,0.7416020671834626,165.6525551966566,208.2500641084667)" style="transform: matrix(0.741602, 0, 0, 0.741602, 165.653, 208.25);"><style>#graph-div{font-family:"trebuchet ms",verdana,arial,sans-serif;font-size:16px;fill:#ccc;}#graph-div .error-icon{fill:#a44141;}#graph-div .error-text{fill:#ddd;stroke:#ddd;}#graph-div .edge-thickness-normal{stroke-width:1px;}#graph-div .edge-thickness-thick{stroke-width:3.5px;}#graph-div .edge-pattern-solid{stroke-dasharray:0;}#graph-div .edge-thickness-invisible{stroke-width:0;fill:none;}#graph-div .edge-pattern-dashed{stroke-dasharray:3;}#graph-div .edge-pattern-dotted{stroke-dasharray:2;}#graph-div .marker{fill:lightgrey;stroke:lightgrey;}#graph-div .marker.cross{stroke:lightgrey;}#graph-div svg{font-family:"trebuchet ms",verdana,arial,sans-serif;font-size:16px;}#graph-div p{margin:0;}#graph-div .entityBox{fill:#1f2020;stroke:#ccc;}#graph-div .attributeBoxOdd{fill:hsl(0, 0%, 32%);stroke:#ccc;}#graph-div .attributeBoxEven{fill:hsl(0, 0%, 22%);stroke:#ccc;}#graph-div .relationshipLabelBox{fill:hsl(20, 1.5873015873%, 12.3529411765%);opacity:0.7;background-color:hsl(20, 1.5873015873%, 12.3529411765%);}#graph-div .relationshipLabelBox rect{opacity:0.5;}#graph-div .relationshipLine{stroke:lightgrey;}#graph-div .entityTitleText{text-anchor:middle;font-size:18px;fill:#ccc;}#graph-div #MD_PARENT_START{fill:#f5f5f5!important;stroke:lightgrey!important;stroke-width:1;}#graph-div #MD_PARENT_END{fill:#f5f5f5!important;stroke:lightgrey!important;stroke-width:1;}#graph-div :root{--mermaid-font-family:"trebuchet ms",verdana,arial,sans-serif;}</style><g></g><path style="stroke: gray; fill: none;" marker-start="url(#ONLY_ONE_START)" marker-end="url(#ONE_OR_MORE_END)" d="M177.477,144.718L160.81,158.265C144.143,171.812,110.81,198.906,94.143,224.453C77.477,250,77.477,274,77.477,286L77.477,298" class="er relationshipLine"></path><path style="stroke: gray; fill: none;" marker-start="url(#ONLY_ONE_START)" marker-end="url(#ZERO_OR_MORE_END)" d="M292.43,144.718L309.096,158.265C325.763,171.812,359.096,198.906,375.763,220.786C392.43,242.667,392.43,259.333,392.43,267.667L392.43,276" class="er relationshipLine"></path><path style="stroke: gray; fill: none;" marker-start="url(#ONLY_ONE_START)" marker-end="url(#ZERO_OR_MORE_END)" d="M234.953,176L234.953,184.333C234.953,192.667,234.953,209.333,234.953,242.667C234.953,276,234.953,326,234.953,376C234.953,426,234.953,476,239.674,509.333C244.394,542.667,253.835,559.333,258.556,567.667L263.276,576" class="er relationshipLine"></path><path style="stroke: gray; fill: none;" marker-start="url(#ONLY_ONE_START)" marker-end="url(#ZERO_OR_MORE_END)" d="M392.43,476L392.43,484.333C392.43,492.667,392.43,509.333,387.709,526C382.989,542.667,373.548,559.333,368.827,567.667L364.107,576" class="er relationshipLine"></path><g transform="translate(177.4765625,20 )" id="entity-USER-6e7e2962-0c6f-577d-a7fd-2ce3a0cfd2c8"><rect height="156" width="114.953125" y="0" x="0" class="er entityBox"></rect><text transform="translate(57.4765625,12)" style="dominant-baseline: middle; text-anchor: middle; font-size: 12px;" y="0" x="0" id="text-entity-USER-6e7e2962-0c6f-577d-a7fd-2ce3a0cfd2c8" class="er entityLabel">USER</text><rect height="22" width="35.7421875" y="24" x="0" class="er attributeBoxOdd"></rect><text transform="translate(5,35)" style="dominant-baseline: middle; font-size: 10.2px;" y="0" x="0" id="text-entity-USER-6e7e2962-0c6f-577d-a7fd-2ce3a0cfd2c8-attr-1-type" class="er entityLabel">int</text><rect height="22" width="57.6484375" y="24" x="35.7421875" class="er attributeBoxOdd"></rect><text transform="translate(40.7421875,35)" style="dominant-baseline: middle; font-size: 10.2px;" y="0" x="0" id="text-entity-USER-6e7e2962-0c6f-577d-a7fd-2ce3a0cfd2c8-attr-1-name" class="er entityLabel">id</text><rect height="22" width="21.5625" y="24" x="93.390625" class="er attributeBoxOdd"></rect><text transform="translate(98.390625,35)" style="dominant-baseline: middle; font-size: 10.2px;" y="0" x="0" id="text-entity-USER-6e7e2962-0c6f-577d-a7fd-2ce3a0cfd2c8-attr-1-key" class="er entityLabel">PK</text><rect height="22" width="35.7421875" y="46" x="0" class="er attributeBoxEven"></rect><text transform="translate(5,57)" style="dominant-baseline: middle; font-size: 10.2px;" y="0" x="0" id="text-entity-USER-6e7e2962-0c6f-577d-a7fd-2ce3a0cfd2c8-attr-2-type" class="er entityLabel">string</text><rect height="22" width="57.6484375" y="46" x="35.7421875" class="er attributeBoxEven"></rect><text transform="translate(40.7421875,57)" style="dominant-baseline: middle; font-size: 10.2px;" y="0" x="0" id="text-entity-USER-6e7e2962-0c6f-577d-a7fd-2ce3a0cfd2c8-attr-2-name" class="er entityLabel">full_name</text><rect height="22" width="21.5625" y="46" x="93.390625" class="er attributeBoxEven"></rect><text transform="translate(98.390625,57)" style="dominant-baseline: middle; font-size: 10.2px;" y="0" x="0" id="text-entity-USER-6e7e2962-0c6f-577d-a7fd-2ce3a0cfd2c8-attr-2-key" class="er entityLabel"></text><rect height="22" width="35.7421875" y="68" x="0" class="er attributeBoxOdd"></rect><text transform="translate(5,79)" style="dominant-baseline: middle; font-size: 10.2px;" y="0" x="0" id="text-entity-USER-6e7e2962-0c6f-577d-a7fd-2ce3a0cfd2c8-attr-3-type" class="er entityLabel">int</text><rect height="22" width="57.6484375" y="68" x="35.7421875" class="er attributeBoxOdd"></rect><text transform="translate(40.7421875,79)" style="dominant-baseline: middle; font-size: 10.2px;" y="0" x="0" id="text-entity-USER-6e7e2962-0c6f-577d-a7fd-2ce3a0cfd2c8-attr-3-name" class="er entityLabel">role_id</text><rect height="22" width="21.5625" y="68" x="93.390625" class="er attributeBoxOdd"></rect><text transform="translate(98.390625,79)" style="dominant-baseline: middle; font-size: 10.2px;" y="0" x="0" id="text-entity-USER-6e7e2962-0c6f-577d-a7fd-2ce3a0cfd2c8-attr-3-key" class="er entityLabel"></text><rect height="22" width="35.7421875" y="90" x="0" class="er attributeBoxEven"></rect><text transform="translate(5,101)" style="dominant-baseline: middle; font-size: 10.2px;" y="0" x="0" id="text-entity-USER-6e7e2962-0c6f-577d-a7fd-2ce3a0cfd2c8-attr-4-type" class="er entityLabel">date</text><rect height="22" width="57.6484375" y="90" x="35.7421875" class="er attributeBoxEven"></rect><text transform="translate(40.7421875,101)" style="dominant-baseline: middle; font-size: 10.2px;" y="0" x="0" id="text-entity-USER-6e7e2962-0c6f-577d-a7fd-2ce3a0cfd2c8-attr-4-name" class="er entityLabel">createdAt</text><rect height="22" width="21.5625" y="90" x="93.390625" class="er attributeBoxEven"></rect><text transform="translate(98.390625,101)" style="dominant-baseline: middle; font-size: 10.2px;" y="0" x="0" id="text-entity-USER-6e7e2962-0c6f-577d-a7fd-2ce3a0cfd2c8-attr-4-key" class="er entityLabel"></text><rect height="22" width="35.7421875" y="112" x="0" class="er attributeBoxOdd"></rect><text transform="translate(5,123)" style="dominant-baseline: middle; font-size: 10.2px;" y="0" x="0" id="text-entity-USER-6e7e2962-0c6f-577d-a7fd-2ce3a0cfd2c8-attr-5-type" class="er entityLabel">date</text><rect height="22" width="57.6484375" y="112" x="35.7421875" class="er attributeBoxOdd"></rect><text transform="translate(40.7421875,123)" style="dominant-baseline: middle; font-size: 10.2px;" y="0" x="0" id="text-entity-USER-6e7e2962-0c6f-577d-a7fd-2ce3a0cfd2c8-attr-5-name" class="er entityLabel">updatedAt</text><rect height="22" width="21.5625" y="112" x="93.390625" class="er attributeBoxOdd"></rect><text transform="translate(98.390625,123)" style="dominant-baseline: middle; font-size: 10.2px;" y="0" x="0" id="text-entity-USER-6e7e2962-0c6f-577d-a7fd-2ce3a0cfd2c8-attr-5-key" class="er entityLabel"></text><rect height="22" width="35.7421875" y="134" x="0" class="er attributeBoxEven"></rect><text transform="translate(5,145)" style="dominant-baseline: middle; font-size: 10.2px;" y="0" x="0" id="text-entity-USER-6e7e2962-0c6f-577d-a7fd-2ce3a0cfd2c8-attr-6-type" class="er entityLabel">date</text><rect height="22" width="57.6484375" y="134" x="35.7421875" class="er attributeBoxEven"></rect><text transform="translate(40.7421875,145)" style="dominant-baseline: middle; font-size: 10.2px;" y="0" x="0" id="text-entity-USER-6e7e2962-0c6f-577d-a7fd-2ce3a0cfd2c8-attr-6-name" class="er entityLabel">deletedAt</text><rect height="22" width="21.5625" y="134" x="93.390625" class="er attributeBoxEven"></rect><text transform="translate(98.390625,145)" style="dominant-baseline: middle; font-size: 10.2px;" y="0" x="0" id="text-entity-USER-6e7e2962-0c6f-577d-a7fd-2ce3a0cfd2c8-attr-6-key" class="er entityLabel"></text></g><g transform="translate(20,298 )" id="entity-ROLE-47fb4726-62fa-56f9-a62b-070f27ba78ef"><rect height="156" width="114.953125" y="0" x="0" class="er entityBox"></rect><text transform="translate(57.4765625,12)" style="dominant-baseline: middle; text-anchor: middle; font-size: 12px;" y="0" x="0" id="text-entity-ROLE-47fb4726-62fa-56f9-a62b-070f27ba78ef" class="er entityLabel">ROLE</text><rect height="22" width="35.7421875" y="24" x="0" class="er attributeBoxOdd"></rect><text transform="translate(5,35)" style="dominant-baseline: middle; font-size: 10.2px;" y="0" x="0" id="text-entity-ROLE-47fb4726-62fa-56f9-a62b-070f27ba78ef-attr-1-type" class="er entityLabel">int</text><rect height="22" width="57.6484375" y="24" x="35.7421875" class="er attributeBoxOdd"></rect><text transform="translate(40.7421875,35)" style="dominant-baseline: middle; font-size: 10.2px;" y="0" x="0" id="text-entity-ROLE-47fb4726-62fa-56f9-a62b-070f27ba78ef-attr-1-name" class="er entityLabel">id</text><rect height="22" width="21.5625" y="24" x="93.390625" class="er attributeBoxOdd"></rect><text transform="translate(98.390625,35)" style="dominant-baseline: middle; font-size: 10.2px;" y="0" x="0" id="text-entity-ROLE-47fb4726-62fa-56f9-a62b-070f27ba78ef-attr-1-key" class="er entityLabel">PK</text><rect height="22" width="35.7421875" y="46" x="0" class="er attributeBoxEven"></rect><text transform="translate(5,57)" style="dominant-baseline: middle; font-size: 10.2px;" y="0" x="0" id="text-entity-ROLE-47fb4726-62fa-56f9-a62b-070f27ba78ef-attr-2-type" class="er entityLabel">string</text><rect height="22" width="57.6484375" y="46" x="35.7421875" class="er attributeBoxEven"></rect><text transform="translate(40.7421875,57)" style="dominant-baseline: middle; font-size: 10.2px;" y="0" x="0" id="text-entity-ROLE-47fb4726-62fa-56f9-a62b-070f27ba78ef-attr-2-name" class="er entityLabel">key</text><rect height="22" width="21.5625" y="46" x="93.390625" class="er attributeBoxEven"></rect><text transform="translate(98.390625,57)" style="dominant-baseline: middle; font-size: 10.2px;" y="0" x="0" id="text-entity-ROLE-47fb4726-62fa-56f9-a62b-070f27ba78ef-attr-2-key" class="er entityLabel"></text><rect height="22" width="35.7421875" y="68" x="0" class="er attributeBoxOdd"></rect><text transform="translate(5,79)" style="dominant-baseline: middle; font-size: 10.2px;" y="0" x="0" id="text-entity-ROLE-47fb4726-62fa-56f9-a62b-070f27ba78ef-attr-3-type" class="er entityLabel">string</text><rect height="22" width="57.6484375" y="68" x="35.7421875" class="er attributeBoxOdd"></rect><text transform="translate(40.7421875,79)" style="dominant-baseline: middle; font-size: 10.2px;" y="0" x="0" id="text-entity-ROLE-47fb4726-62fa-56f9-a62b-070f27ba78ef-attr-3-name" class="er entityLabel">name</text><rect height="22" width="21.5625" y="68" x="93.390625" class="er attributeBoxOdd"></rect><text transform="translate(98.390625,79)" style="dominant-baseline: middle; font-size: 10.2px;" y="0" x="0" id="text-entity-ROLE-47fb4726-62fa-56f9-a62b-070f27ba78ef-attr-3-key" class="er entityLabel"></text><rect height="22" width="35.7421875" y="90" x="0" class="er attributeBoxEven"></rect><text transform="translate(5,101)" style="dominant-baseline: middle; font-size: 10.2px;" y="0" x="0" id="text-entity-ROLE-47fb4726-62fa-56f9-a62b-070f27ba78ef-attr-4-type" class="er entityLabel">date</text><rect height="22" width="57.6484375" y="90" x="35.7421875" class="er attributeBoxEven"></rect><text transform="translate(40.7421875,101)" style="dominant-baseline: middle; font-size: 10.2px;" y="0" x="0" id="text-entity-ROLE-47fb4726-62fa-56f9-a62b-070f27ba78ef-attr-4-name" class="er entityLabel">createdAt</text><rect height="22" width="21.5625" y="90" x="93.390625" class="er attributeBoxEven"></rect><text transform="translate(98.390625,101)" style="dominant-baseline: middle; font-size: 10.2px;" y="0" x="0" id="text-entity-ROLE-47fb4726-62fa-56f9-a62b-070f27ba78ef-attr-4-key" class="er entityLabel"></text><rect height="22" width="35.7421875" y="112" x="0" class="er attributeBoxOdd"></rect><text transform="translate(5,123)" style="dominant-baseline: middle; font-size: 10.2px;" y="0" x="0" id="text-entity-ROLE-47fb4726-62fa-56f9-a62b-070f27ba78ef-attr-5-type" class="er entityLabel">date</text><rect height="22" width="57.6484375" y="112" x="35.7421875" class="er attributeBoxOdd"></rect><text transform="translate(40.7421875,123)" style="dominant-baseline: middle; font-size: 10.2px;" y="0" x="0" id="text-entity-ROLE-47fb4726-62fa-56f9-a62b-070f27ba78ef-attr-5-name" class="er entityLabel">updatedAt</text><rect height="22" width="21.5625" y="112" x="93.390625" class="er attributeBoxOdd"></rect><text transform="translate(98.390625,123)" style="dominant-baseline: middle; font-size: 10.2px;" y="0" x="0" id="text-entity-ROLE-47fb4726-62fa-56f9-a62b-070f27ba78ef-attr-5-key" class="er entityLabel"></text><rect height="22" width="35.7421875" y="134" x="0" class="er attributeBoxEven"></rect><text transform="translate(5,145)" style="dominant-baseline: middle; font-size: 10.2px;" y="0" x="0" id="text-entity-ROLE-47fb4726-62fa-56f9-a62b-070f27ba78ef-attr-6-type" class="er entityLabel">date</text><rect height="22" width="57.6484375" y="134" x="35.7421875" class="er attributeBoxEven"></rect><text transform="translate(40.7421875,145)" style="dominant-baseline: middle; font-size: 10.2px;" y="0" x="0" id="text-entity-ROLE-47fb4726-62fa-56f9-a62b-070f27ba78ef-attr-6-name" class="er entityLabel">deletedAt</text><rect height="22" width="21.5625" y="134" x="93.390625" class="er attributeBoxEven"></rect><text transform="translate(98.390625,145)" style="dominant-baseline: middle; font-size: 10.2px;" y="0" x="0" id="text-entity-ROLE-47fb4726-62fa-56f9-a62b-070f27ba78ef-attr-6-key" class="er entityLabel"></text></g><g transform="translate(334.953125,276 )" id="entity-POST-dedb1204-6961-5504-b717-5f982e5d0300"><rect height="200" width="114.953125" y="0" x="0" class="er entityBox"></rect><text transform="translate(57.4765625,12)" style="dominant-baseline: middle; text-anchor: middle; font-size: 12px;" y="0" x="0" id="text-entity-POST-dedb1204-6961-5504-b717-5f982e5d0300" class="er entityLabel">POST</text><rect height="22" width="35.7421875" y="24" x="0" class="er attributeBoxOdd"></rect><text transform="translate(5,35)" style="dominant-baseline: middle; font-size: 10.2px;" y="0" x="0" id="text-entity-POST-dedb1204-6961-5504-b717-5f982e5d0300-attr-1-type" class="er entityLabel">int</text><rect height="22" width="57.6484375" y="24" x="35.7421875" class="er attributeBoxOdd"></rect><text transform="translate(40.7421875,35)" style="dominant-baseline: middle; font-size: 10.2px;" y="0" x="0" id="text-entity-POST-dedb1204-6961-5504-b717-5f982e5d0300-attr-1-name" class="er entityLabel">id</text><rect height="22" width="21.5625" y="24" x="93.390625" class="er attributeBoxOdd"></rect><text transform="translate(98.390625,35)" style="dominant-baseline: middle; font-size: 10.2px;" y="0" x="0" id="text-entity-POST-dedb1204-6961-5504-b717-5f982e5d0300-attr-1-key" class="er entityLabel">PK</text><rect height="22" width="35.7421875" y="46" x="0" class="er attributeBoxEven"></rect><text transform="translate(5,57)" style="dominant-baseline: middle; font-size: 10.2px;" y="0" x="0" id="text-entity-POST-dedb1204-6961-5504-b717-5f982e5d0300-attr-2-type" class="er entityLabel">string</text><rect height="22" width="57.6484375" y="46" x="35.7421875" class="er attributeBoxEven"></rect><text transform="translate(40.7421875,57)" style="dominant-baseline: middle; font-size: 10.2px;" y="0" x="0" id="text-entity-POST-dedb1204-6961-5504-b717-5f982e5d0300-attr-2-name" class="er entityLabel">slug</text><rect height="22" width="21.5625" y="46" x="93.390625" class="er attributeBoxEven"></rect><text transform="translate(98.390625,57)" style="dominant-baseline: middle; font-size: 10.2px;" y="0" x="0" id="text-entity-POST-dedb1204-6961-5504-b717-5f982e5d0300-attr-2-key" class="er entityLabel"></text><rect height="22" width="35.7421875" y="68" x="0" class="er attributeBoxOdd"></rect><text transform="translate(5,79)" style="dominant-baseline: middle; font-size: 10.2px;" y="0" x="0" id="text-entity-POST-dedb1204-6961-5504-b717-5f982e5d0300-attr-3-type" class="er entityLabel">string</text><rect height="22" width="57.6484375" y="68" x="35.7421875" class="er attributeBoxOdd"></rect><text transform="translate(40.7421875,79)" style="dominant-baseline: middle; font-size: 10.2px;" y="0" x="0" id="text-entity-POST-dedb1204-6961-5504-b717-5f982e5d0300-attr-3-name" class="er entityLabel">title</text><rect height="22" width="21.5625" y="68" x="93.390625" class="er attributeBoxOdd"></rect><text transform="translate(98.390625,79)" style="dominant-baseline: middle; font-size: 10.2px;" y="0" x="0" id="text-entity-POST-dedb1204-6961-5504-b717-5f982e5d0300-attr-3-key" class="er entityLabel"></text><rect height="22" width="35.7421875" y="90" x="0" class="er attributeBoxEven"></rect><text transform="translate(5,101)" style="dominant-baseline: middle; font-size: 10.2px;" y="0" x="0" id="text-entity-POST-dedb1204-6961-5504-b717-5f982e5d0300-attr-4-type" class="er entityLabel">string</text><rect height="22" width="57.6484375" y="90" x="35.7421875" class="er attributeBoxEven"></rect><text transform="translate(40.7421875,101)" style="dominant-baseline: middle; font-size: 10.2px;" y="0" x="0" id="text-entity-POST-dedb1204-6961-5504-b717-5f982e5d0300-attr-4-name" class="er entityLabel">body</text><rect height="22" width="21.5625" y="90" x="93.390625" class="er attributeBoxEven"></rect><text transform="translate(98.390625,101)" style="dominant-baseline: middle; font-size: 10.2px;" y="0" x="0" id="text-entity-POST-dedb1204-6961-5504-b717-5f982e5d0300-attr-4-key" class="er entityLabel"></text><rect height="22" width="35.7421875" y="112" x="0" class="er attributeBoxOdd"></rect><text transform="translate(5,123)" style="dominant-baseline: middle; font-size: 10.2px;" y="0" x="0" id="text-entity-POST-dedb1204-6961-5504-b717-5f982e5d0300-attr-5-type" class="er entityLabel">int</text><rect height="22" width="57.6484375" y="112" x="35.7421875" class="er attributeBoxOdd"></rect><text transform="translate(40.7421875,123)" style="dominant-baseline: middle; font-size: 10.2px;" y="0" x="0" id="text-entity-POST-dedb1204-6961-5504-b717-5f982e5d0300-attr-5-name" class="er entityLabel">createdBy</text><rect height="22" width="21.5625" y="112" x="93.390625" class="er attributeBoxOdd"></rect><text transform="translate(98.390625,123)" style="dominant-baseline: middle; font-size: 10.2px;" y="0" x="0" id="text-entity-POST-dedb1204-6961-5504-b717-5f982e5d0300-attr-5-key" class="er entityLabel"></text><rect height="22" width="35.7421875" y="134" x="0" class="er attributeBoxEven"></rect><text transform="translate(5,145)" style="dominant-baseline: middle; font-size: 10.2px;" y="0" x="0" id="text-entity-POST-dedb1204-6961-5504-b717-5f982e5d0300-attr-6-type" class="er entityLabel">date</text><rect height="22" width="57.6484375" y="134" x="35.7421875" class="er attributeBoxEven"></rect><text transform="translate(40.7421875,145)" style="dominant-baseline: middle; font-size: 10.2px;" y="0" x="0" id="text-entity-POST-dedb1204-6961-5504-b717-5f982e5d0300-attr-6-name" class="er entityLabel">createdAt</text><rect height="22" width="21.5625" y="134" x="93.390625" class="er attributeBoxEven"></rect><text transform="translate(98.390625,145)" style="dominant-baseline: middle; font-size: 10.2px;" y="0" x="0" id="text-entity-POST-dedb1204-6961-5504-b717-5f982e5d0300-attr-6-key" class="er entityLabel"></text><rect height="22" width="35.7421875" y="156" x="0" class="er attributeBoxOdd"></rect><text transform="translate(5,167)" style="dominant-baseline: middle; font-size: 10.2px;" y="0" x="0" id="text-entity-POST-dedb1204-6961-5504-b717-5f982e5d0300-attr-7-type" class="er entityLabel">date</text><rect height="22" width="57.6484375" y="156" x="35.7421875" class="er attributeBoxOdd"></rect><text transform="translate(40.7421875,167)" style="dominant-baseline: middle; font-size: 10.2px;" y="0" x="0" id="text-entity-POST-dedb1204-6961-5504-b717-5f982e5d0300-attr-7-name" class="er entityLabel">updatedAt</text><rect height="22" width="21.5625" y="156" x="93.390625" class="er attributeBoxOdd"></rect><text transform="translate(98.390625,167)" style="dominant-baseline: middle; font-size: 10.2px;" y="0" x="0" id="text-entity-POST-dedb1204-6961-5504-b717-5f982e5d0300-attr-7-key" class="er entityLabel"></text><rect height="22" width="35.7421875" y="178" x="0" class="er attributeBoxEven"></rect><text transform="translate(5,189)" style="dominant-baseline: middle; font-size: 10.2px;" y="0" x="0" id="text-entity-POST-dedb1204-6961-5504-b717-5f982e5d0300-attr-8-type" class="er entityLabel">date</text><rect height="22" width="57.6484375" y="178" x="35.7421875" class="er attributeBoxEven"></rect><text transform="translate(40.7421875,189)" style="dominant-baseline: middle; font-size: 10.2px;" y="0" x="0" id="text-entity-POST-dedb1204-6961-5504-b717-5f982e5d0300-attr-8-name" class="er entityLabel">deletedAt</text><rect height="22" width="21.5625" y="178" x="93.390625" class="er attributeBoxEven"></rect><text transform="translate(98.390625,189)" style="dominant-baseline: middle; font-size: 10.2px;" y="0" x="0" id="text-entity-POST-dedb1204-6961-5504-b717-5f982e5d0300-attr-8-key" class="er entityLabel"></text></g><g transform="translate(256.21484375,576 )" id="entity-COMMENT-7200c8cd-419e-593d-9e89-c74d55c6fb75"><rect height="178" width="114.953125" y="0" x="0" class="er entityBox"></rect><text transform="translate(57.4765625,12)" style="dominant-baseline: middle; text-anchor: middle; font-size: 12px;" y="0" x="0" id="text-entity-COMMENT-7200c8cd-419e-593d-9e89-c74d55c6fb75" class="er entityLabel">COMMENT</text><rect height="22" width="35.7421875" y="24" x="0" class="er attributeBoxOdd"></rect><text transform="translate(5,35)" style="dominant-baseline: middle; font-size: 10.2px;" y="0" x="0" id="text-entity-COMMENT-7200c8cd-419e-593d-9e89-c74d55c6fb75-attr-1-type" class="er entityLabel">int</text><rect height="22" width="57.6484375" y="24" x="35.7421875" class="er attributeBoxOdd"></rect><text transform="translate(40.7421875,35)" style="dominant-baseline: middle; font-size: 10.2px;" y="0" x="0" id="text-entity-COMMENT-7200c8cd-419e-593d-9e89-c74d55c6fb75-attr-1-name" class="er entityLabel">id</text><rect height="22" width="21.5625" y="24" x="93.390625" class="er attributeBoxOdd"></rect><text transform="translate(98.390625,35)" style="dominant-baseline: middle; font-size: 10.2px;" y="0" x="0" id="text-entity-COMMENT-7200c8cd-419e-593d-9e89-c74d55c6fb75-attr-1-key" class="er entityLabel">PK</text><rect height="22" width="35.7421875" y="46" x="0" class="er attributeBoxEven"></rect><text transform="translate(5,57)" style="dominant-baseline: middle; font-size: 10.2px;" y="0" x="0" id="text-entity-COMMENT-7200c8cd-419e-593d-9e89-c74d55c6fb75-attr-2-type" class="er entityLabel">string</text><rect height="22" width="57.6484375" y="46" x="35.7421875" class="er attributeBoxEven"></rect><text transform="translate(40.7421875,57)" style="dominant-baseline: middle; font-size: 10.2px;" y="0" x="0" id="text-entity-COMMENT-7200c8cd-419e-593d-9e89-c74d55c6fb75-attr-2-name" class="er entityLabel">text</text><rect height="22" width="21.5625" y="46" x="93.390625" class="er attributeBoxEven"></rect><text transform="translate(98.390625,57)" style="dominant-baseline: middle; font-size: 10.2px;" y="0" x="0" id="text-entity-COMMENT-7200c8cd-419e-593d-9e89-c74d55c6fb75-attr-2-key" class="er entityLabel"></text><rect height="22" width="35.7421875" y="68" x="0" class="er attributeBoxOdd"></rect><text transform="translate(5,79)" style="dominant-baseline: middle; font-size: 10.2px;" y="0" x="0" id="text-entity-COMMENT-7200c8cd-419e-593d-9e89-c74d55c6fb75-attr-3-type" class="er entityLabel">int</text><rect height="22" width="57.6484375" y="68" x="35.7421875" class="er attributeBoxOdd"></rect><text transform="translate(40.7421875,79)" style="dominant-baseline: middle; font-size: 10.2px;" y="0" x="0" id="text-entity-COMMENT-7200c8cd-419e-593d-9e89-c74d55c6fb75-attr-3-name" class="er entityLabel">post_id</text><rect height="22" width="21.5625" y="68" x="93.390625" class="er attributeBoxOdd"></rect><text transform="translate(98.390625,79)" style="dominant-baseline: middle; font-size: 10.2px;" y="0" x="0" id="text-entity-COMMENT-7200c8cd-419e-593d-9e89-c74d55c6fb75-attr-3-key" class="er entityLabel"></text><rect height="22" width="35.7421875" y="90" x="0" class="er attributeBoxEven"></rect><text transform="translate(5,101)" style="dominant-baseline: middle; font-size: 10.2px;" y="0" x="0" id="text-entity-COMMENT-7200c8cd-419e-593d-9e89-c74d55c6fb75-attr-4-type" class="er entityLabel">int</text><rect height="22" width="57.6484375" y="90" x="35.7421875" class="er attributeBoxEven"></rect><text transform="translate(40.7421875,101)" style="dominant-baseline: middle; font-size: 10.2px;" y="0" x="0" id="text-entity-COMMENT-7200c8cd-419e-593d-9e89-c74d55c6fb75-attr-4-name" class="er entityLabel">createdBy</text><rect height="22" width="21.5625" y="90" x="93.390625" class="er attributeBoxEven"></rect><text transform="translate(98.390625,101)" style="dominant-baseline: middle; font-size: 10.2px;" y="0" x="0" id="text-entity-COMMENT-7200c8cd-419e-593d-9e89-c74d55c6fb75-attr-4-key" class="er entityLabel"></text><rect height="22" width="35.7421875" y="112" x="0" class="er attributeBoxOdd"></rect><text transform="translate(5,123)" style="dominant-baseline: middle; font-size: 10.2px;" y="0" x="0" id="text-entity-COMMENT-7200c8cd-419e-593d-9e89-c74d55c6fb75-attr-5-type" class="er entityLabel">date</text><rect height="22" width="57.6484375" y="112" x="35.7421875" class="er attributeBoxOdd"></rect><text transform="translate(40.7421875,123)" style="dominant-baseline: middle; font-size: 10.2px;" y="0" x="0" id="text-entity-COMMENT-7200c8cd-419e-593d-9e89-c74d55c6fb75-attr-5-name" class="er entityLabel">createdAt</text><rect height="22" width="21.5625" y="112" x="93.390625" class="er attributeBoxOdd"></rect><text transform="translate(98.390625,123)" style="dominant-baseline: middle; font-size: 10.2px;" y="0" x="0" id="text-entity-COMMENT-7200c8cd-419e-593d-9e89-c74d55c6fb75-attr-5-key" class="er entityLabel"></text><rect height="22" width="35.7421875" y="134" x="0" class="er attributeBoxEven"></rect><text transform="translate(5,145)" style="dominant-baseline: middle; font-size: 10.2px;" y="0" x="0" id="text-entity-COMMENT-7200c8cd-419e-593d-9e89-c74d55c6fb75-attr-6-type" class="er entityLabel">date</text><rect height="22" width="57.6484375" y="134" x="35.7421875" class="er attributeBoxEven"></rect><text transform="translate(40.7421875,145)" style="dominant-baseline: middle; font-size: 10.2px;" y="0" x="0" id="text-entity-COMMENT-7200c8cd-419e-593d-9e89-c74d55c6fb75-attr-6-name" class="er entityLabel">updatedAt</text><rect height="22" width="21.5625" y="134" x="93.390625" class="er attributeBoxEven"></rect><text transform="translate(98.390625,145)" style="dominant-baseline: middle; font-size: 10.2px;" y="0" x="0" id="text-entity-COMMENT-7200c8cd-419e-593d-9e89-c74d55c6fb75-attr-6-key" class="er entityLabel"></text><rect height="22" width="35.7421875" y="156" x="0" class="er attributeBoxOdd"></rect><text transform="translate(5,167)" style="dominant-baseline: middle; font-size: 10.2px;" y="0" x="0" id="text-entity-COMMENT-7200c8cd-419e-593d-9e89-c74d55c6fb75-attr-7-type" class="er entityLabel">date</text><rect height="22" width="57.6484375" y="156" x="35.7421875" class="er attributeBoxOdd"></rect><text transform="translate(40.7421875,167)" style="dominant-baseline: middle; font-size: 10.2px;" y="0" x="0" id="text-entity-COMMENT-7200c8cd-419e-593d-9e89-c74d55c6fb75-attr-7-name" class="er entityLabel">deletedAt</text><rect height="22" width="21.5625" y="156" x="93.390625" class="er attributeBoxOdd"></rect><text transform="translate(98.390625,167)" style="dominant-baseline: middle; font-size: 10.2px;" y="0" x="0" id="text-entity-COMMENT-7200c8cd-419e-593d-9e89-c74d55c6fb75-attr-7-key" class="er entityLabel"></text></g><rect height="14" width="40.875" y="201.9642791748047" x="85.52169799804688" class="er relationshipLabelBox"></rect><text style="text-anchor: middle; dominant-baseline: middle; font-size: 12px;" y="208.9642791748047" x="105.95919799804688" id="rel217" class="er relationshipLabel">has one</text><rect height="14" width="50.078125" y="193.75437927246094" x="332.69207763671875" class="er relationshipLabelBox"></rect><text style="text-anchor: middle; dominant-baseline: middle; font-size: 12px;" y="200.75437927246094" x="357.73114013671875" id="rel218" class="er relationshipLabel">has many</text><rect height="14" width="50.078125" y="371.40069580078125" x="209.9142303466797" class="er relationshipLabelBox"></rect><text style="text-anchor: middle; dominant-baseline: middle; font-size: 12px;" y="378.40069580078125" x="234.9532928466797" id="rel219" class="er relationshipLabel">has many</text><rect height="14" width="50.078125" y="521.4090576171875" x="361.9555358886719" class="er relationshipLabelBox"></rect><text style="text-anchor: middle; dominant-baseline: middle; font-size: 12px;" y="528.4090576171875" x="386.9945983886719" id="rel220" class="er relationshipLabel">has many</text></g><g id="svg-pan-zoom-controls" transform="translate(1290 1072) scale(0.75)" class="svg-pan-zoom-control"><g id="svg-pan-zoom-zoom-in" transform="translate(30.5 5) scale(0.015)" class="svg-pan-zoom-control"><rect x="0" y="0" width="1500" height="1400" class="svg-pan-zoom-control-background"></rect><path d="M1280 576v128q0 26 -19 45t-45 19h-320v320q0 26 -19 45t-45 19h-128q-26 0 -45 -19t-19 -45v-320h-320q-26 0 -45 -19t-19 -45v-128q0 -26 19 -45t45 -19h320v-320q0 -26 19 -45t45 -19h128q26 0 45 19t19 45v320h320q26 0 45 19t19 45zM1536 1120v-960 q0 -119 -84.5 -203.5t-203.5 -84.5h-960q-119 0 -203.5 84.5t-84.5 203.5v960q0 119 84.5 203.5t203.5 84.5h960q119 0 203.5 -84.5t84.5 -203.5z" class="svg-pan-zoom-control-element"></path></g><g id="svg-pan-zoom-reset-pan-zoom" transform="translate(5 35) scale(0.4)" class="svg-pan-zoom-control"><rect x="2" y="2" width="182" height="58" class="svg-pan-zoom-control-background"></rect><path d="M33.051,20.632c-0.742-0.406-1.854-0.609-3.338-0.609h-7.969v9.281h7.769c1.543,0,2.701-0.188,3.473-0.562c1.365-0.656,2.048-1.953,2.048-3.891C35.032,22.757,34.372,21.351,33.051,20.632z" class="svg-pan-zoom-control-element"></path><path d="M170.231,0.5H15.847C7.102,0.5,0.5,5.708,0.5,11.84v38.861C0.5,56.833,7.102,61.5,15.847,61.5h154.384c8.745,0,15.269-4.667,15.269-10.798V11.84C185.5,5.708,178.976,0.5,170.231,0.5z M42.837,48.569h-7.969c-0.219-0.766-0.375-1.383-0.469-1.852c-0.188-0.969-0.289-1.961-0.305-2.977l-0.047-3.211c-0.03-2.203-0.41-3.672-1.142-4.406c-0.732-0.734-2.103-1.102-4.113-1.102h-7.05v13.547h-7.055V14.022h16.524c2.361,0.047,4.178,0.344,5.45,0.891c1.272,0.547,2.351,1.352,3.234,2.414c0.731,0.875,1.31,1.844,1.737,2.906s0.64,2.273,0.64,3.633c0,1.641-0.414,3.254-1.242,4.84s-2.195,2.707-4.102,3.363c1.594,0.641,2.723,1.551,3.387,2.73s0.996,2.98,0.996,5.402v2.32c0,1.578,0.063,2.648,0.19,3.211c0.19,0.891,0.635,1.547,1.333,1.969V48.569z M75.579,48.569h-26.18V14.022h25.336v6.117H56.454v7.336h16.781v6H56.454v8.883h19.125V48.569z M104.497,46.331c-2.44,2.086-5.887,3.129-10.34,3.129c-4.548,0-8.125-1.027-10.731-3.082s-3.909-4.879-3.909-8.473h6.891c0.224,1.578,0.662,2.758,1.316,3.539c1.196,1.422,3.246,2.133,6.15,2.133c1.739,0,3.151-0.188,4.236-0.562c2.058-0.719,3.087-2.055,3.087-4.008c0-1.141-0.504-2.023-1.512-2.648c-1.008-0.609-2.607-1.148-4.796-1.617l-3.74-0.82c-3.676-0.812-6.201-1.695-7.576-2.648c-2.328-1.594-3.492-4.086-3.492-7.477c0-3.094,1.139-5.664,3.417-7.711s5.623-3.07,10.036-3.07c3.685,0,6.829,0.965,9.431,2.895c2.602,1.93,3.966,4.73,4.093,8.402h-6.938c-0.128-2.078-1.057-3.555-2.787-4.43c-1.154-0.578-2.587-0.867-4.301-0.867c-1.907,0-3.428,0.375-4.565,1.125c-1.138,0.75-1.706,1.797-1.706,3.141c0,1.234,0.561,2.156,1.682,2.766c0.721,0.406,2.25,0.883,4.589,1.43l6.063,1.43c2.657,0.625,4.648,1.461,5.975,2.508c2.059,1.625,3.089,3.977,3.089,7.055C108.157,41.624,106.937,44.245,104.497,46.331z M139.61,48.569h-26.18V14.022h25.336v6.117h-18.281v7.336h16.781v6h-16.781v8.883h19.125V48.569z M170.337,20.14h-10.336v28.43h-7.266V20.14h-10.383v-6.117h27.984V20.14z" class="svg-pan-zoom-control-element"></path></g><g id="svg-pan-zoom-zoom-out" transform="translate(30.5 70) scale(0.015)" class="svg-pan-zoom-control"><rect x="0" y="0" width="1500" height="1400" class="svg-pan-zoom-control-background"></rect><path d="M1280 576v128q0 26 -19 45t-45 19h-896q-26 0 -45 -19t-19 -45v-128q0 -26 19 -45t45 -19h896q26 0 45 19t19 45zM1536 1120v-960q0 -119 -84.5 -203.5t-203.5 -84.5h-960q-119 0 -203.5 84.5t-84.5 203.5v960q0 119 84.5 203.5t203.5 84.5h960q119 0 203.5 -84.5 t84.5 -203.5z" class="svg-pan-zoom-control-element"></path></g></g></svg>